<svg width="22" height="22" viewBox="0 0 22 22" fill="none" xmlns="http://www.w3.org/2000/svg">
<path fill-rule="evenodd" clip-rule="evenodd" d="M11.0002 3.66732C6.95007 3.66732 3.66683 6.95056 3.66683 11.0007C3.66683 15.0507 6.95007 18.334 11.0002 18.334C15.0503 18.334 18.3335 15.0507 18.3335 11.0007C18.3335 6.95056 15.0503 3.66732 11.0002 3.66732ZM1.8335 11.0007C1.8335 5.93804 5.93755 1.83398 11.0002 1.83398C16.0628 1.83398 20.1668 5.93804 20.1668 11.0007C20.1668 16.0633 16.0628 20.1673 11.0002 20.1673C5.93755 20.1673 1.8335 16.0633 1.8335 11.0007Z" fill="#AFAFAF"/>
<path fill-rule="evenodd" clip-rule="evenodd" d="M11.0002 9.16732C11.5064 9.16732 11.9168 9.57772 11.9168 10.084V15.584C11.9168 16.0902 11.5064 16.5007 11.0002 16.5007C10.4939 16.5007 10.0835 16.0902 10.0835 15.584V10.084C10.0835 9.57772 10.4939 9.16732 11.0002 9.16732Z" fill="#AFAFAF"/>
<path d="M12.3752 6.87565C12.3752 7.63504 11.7596 8.25065 11.0002 8.25065C10.2408 8.25065 9.62516 7.63504 9.62516 6.87565C9.62516 6.11626 10.2408 5.50065 11.0002 5.50065C11.7596 5.50065 12.3752 6.11626 12.3752 6.87565Z" fill="#AFAFAF"/>
</svg>
