<svg width="18" height="16" viewBox="0 0 18 16" fill="none" xmlns="http://www.w3.org/2000/svg">
<path fill-rule="evenodd" clip-rule="evenodd" d="M2.13097 1.96447C4.01755 0.0778878 7.03665 0.0140783 8.99984 1.77304C10.963 0.0140783 13.9821 0.0778878 15.8687 1.96447C17.8213 3.91709 17.8213 7.08291 15.8687 9.03553L10.1783 14.7259C9.52748 15.3768 8.4722 15.3768 7.82133 14.7259L2.13097 9.03553C0.178349 7.08291 0.178349 3.91709 2.13097 1.96447Z" fill="#F54451"/>
<path d="M8.99984 1.77304L8.66619 2.14543L8.99984 2.44437L9.33349 2.14543L8.99984 1.77304ZM2.13097 1.96447L1.77742 1.61091L1.77742 1.61091L2.13097 1.96447ZM15.8687 1.96447L16.2223 1.61091L16.2223 1.61091L15.8687 1.96447ZM15.8687 9.03553L15.5152 8.68198L15.5152 8.68198L15.8687 9.03553ZM10.1783 14.7259L9.8248 14.3723L9.8248 14.3723L10.1783 14.7259ZM7.82133 14.7259L8.17488 14.3723L8.17488 14.3723L7.82133 14.7259ZM2.13097 9.03553L2.48452 8.68198L2.48452 8.68198L2.13097 9.03553ZM9.33349 1.40065C7.17366 -0.534502 3.85277 -0.464439 1.77742 1.61091L2.48452 2.31802C4.18233 0.620215 6.89964 0.562659 8.66619 2.14543L9.33349 1.40065ZM16.2223 1.61091C14.1469 -0.464439 10.826 -0.534502 8.66619 1.40065L9.33349 2.14543C11.1 0.562659 13.8173 0.620215 15.5152 2.31802L16.2223 1.61091ZM16.2223 9.38909C18.3701 7.2412 18.3701 3.7588 16.2223 1.61091L15.5152 2.31802C17.2725 4.07538 17.2725 6.92462 15.5152 8.68198L16.2223 9.38909ZM10.5319 15.0794L16.2223 9.38909L15.5152 8.68198L9.8248 14.3723L10.5319 15.0794ZM7.46777 15.0794C8.31391 15.9256 9.68577 15.9256 10.5319 15.0794L9.8248 14.3723C9.36918 14.8279 8.63049 14.8279 8.17488 14.3723L7.46777 15.0794ZM1.77742 9.38909L7.46777 15.0794L8.17488 14.3723L2.48452 8.68198L1.77742 9.38909ZM1.77742 1.61091C-0.370467 3.7588 -0.370467 7.2412 1.77742 9.38909L2.48452 8.68198C0.727164 6.92462 0.727164 4.07538 2.48452 2.31802L1.77742 1.61091Z" fill="#F54451"/>
</svg>
