<svg width="16" height="16" viewBox="0 0 16 16" fill="none" xmlns="http://www.w3.org/2000/svg">
<path d="M1.3335 3.99935C1.3335 3.26297 1.93045 2.66602 2.66683 2.66602H13.3335C14.0699 2.66602 14.6668 3.26297 14.6668 3.99935V11.3327C14.6668 12.0691 14.0699 12.666 13.3335 12.666H10.2763L8.47157 14.4708C8.21122 14.7311 7.78911 14.7311 7.52876 14.4708L5.72402 12.666H2.66683C1.93045 12.666 1.3335 12.0691 1.3335 11.3327V3.99935ZM13.3335 3.99935H2.66683V11.3327H6.00016C6.17697 11.3327 6.34654 11.4029 6.47157 11.5279L8.00016 13.0565L9.52876 11.5279C9.65378 11.4029 9.82335 11.3327 10.0002 11.3327H13.3335V3.99935ZM4.00016 6.33268C4.00016 5.96449 4.29864 5.66602 4.66683 5.66602H11.3335C11.7017 5.66602 12.0002 5.96449 12.0002 6.33268C12.0002 6.70087 11.7017 6.99935 11.3335 6.99935H4.66683C4.29864 6.99935 4.00016 6.70087 4.00016 6.33268ZM4.00016 8.99935C4.00016 8.63116 4.29864 8.33268 4.66683 8.33268H8.66683C9.03502 8.33268 9.3335 8.63116 9.3335 8.99935C9.3335 9.36754 9.03502 9.66602 8.66683 9.66602H4.66683C4.29864 9.66602 4.00016 9.36754 4.00016 8.99935Z" fill="#A5A5A5"/>
</svg>
