<svg width="24" height="24" viewBox="0 0 24 24" fill="none" xmlns="http://www.w3.org/2000/svg">
<path d="M11.3449 7.14645C11.5517 7.34171 11.5517 7.65829 11.3449 7.85355L10.6605 8.5H11.5C13.963 8.5 16 10.4239 16 12.75C16 15.0761 13.963 17 11.5 17C9.03703 17 7 15.0761 7 12.75C7 12.4739 7.23703 12.25 7.52941 12.25C7.8218 12.25 8.05882 12.4739 8.05882 12.75C8.05882 14.5239 9.6218 16 11.5 16C13.3782 16 14.9412 14.5239 14.9412 12.75C14.9412 10.9761 13.3782 9.5 11.5 9.5H10.6605L11.3449 10.1464C11.5517 10.3417 11.5517 10.6583 11.3449 10.8536C11.1382 11.0488 10.803 11.0488 10.5962 10.8536L9.008 9.35355C8.80125 9.15829 8.80125 8.84171 9.008 8.64645L10.5962 7.14645C10.803 6.95118 11.1382 6.95118 11.3449 7.14645Z" fill="#0D0D0D"/>
</svg>
