<svg width="24" height="24" viewBox="0 0 24 24" fill="none" xmlns="http://www.w3.org/2000/svg">
<path d="M14.0951 21H10.9061C10.4944 21 10.1382 20.7221 10.0501 20.3319L9.69351 18.7305C9.21783 18.5283 8.76678 18.2754 8.34867 17.9766L6.73924 18.4738C6.34674 18.5952 5.92005 18.435 5.71418 18.0888L4.11613 15.4104C3.91251 15.064 3.98266 14.6271 4.28523 14.3573L5.5337 13.2523C5.47692 12.7517 5.47692 12.2466 5.5337 11.7461L4.28523 10.6436C3.98222 10.3736 3.91204 9.93616 4.11613 9.5896L5.71067 6.90955C5.91655 6.56334 6.34323 6.40307 6.73573 6.5245L8.34517 7.02175C8.55899 6.86803 8.78159 6.72614 9.01189 6.59675C9.23297 6.47579 9.4605 6.36627 9.69351 6.26865L10.051 4.66895C10.1386 4.27877 10.4945 4.00042 10.9061 4H14.0951C14.5068 4.00042 14.8626 4.27877 14.9502 4.66895L15.3112 6.2695C15.5572 6.37449 15.7968 6.49312 16.0287 6.6248C16.2451 6.74619 16.4542 6.87928 16.6552 7.02345L18.2655 6.5262C18.6577 6.40522 19.0839 6.56544 19.2897 6.91125L20.8842 9.5913C21.0878 9.93766 21.0177 10.3746 20.7151 10.6445L19.4666 11.7494C19.5234 12.25 19.5234 12.7551 19.4666 13.2557L20.7151 14.3607C21.0177 14.6305 21.0878 15.0674 20.8842 15.4138L19.2897 18.0939C19.0839 18.4397 18.6577 18.5999 18.2655 18.4789L16.6552 17.9817C16.4514 18.1273 16.2397 18.262 16.0209 18.3854C15.7912 18.5145 15.5542 18.6312 15.3112 18.7348L14.9502 20.3319C14.8622 20.7217 14.5065 20.9997 14.0951 21ZM8.6632 16.0947L9.38162 16.6047C9.54357 16.7204 9.71236 16.8268 9.88714 16.9234C10.0516 17.0158 10.2209 17.0998 10.3944 17.175L11.2118 17.5227L11.6122 19.3H13.3907L13.7911 17.5218L14.6085 17.1742C14.9654 17.0215 15.3041 16.8317 15.6187 16.6081L16.338 16.0981L18.1262 16.6506L19.0154 15.1562L17.6285 13.9297L17.7267 13.0695C17.7698 12.6933 17.7698 12.3135 17.7267 11.9373L17.6285 11.0771L19.0163 9.848L18.1262 8.35285L16.338 8.90535L15.6187 8.39535C15.304 8.1707 14.9653 7.97949 14.6085 7.825L13.7911 7.47735L13.3907 5.7H11.6122L11.2101 7.4782L10.3944 7.825C10.2208 7.89899 10.0514 7.98213 9.88714 8.07405C9.71343 8.17038 9.54553 8.27623 9.38424 8.3911L8.66495 8.9011L6.87766 8.3486L5.98665 9.848L7.37355 11.0729L7.27542 11.9339C7.23232 12.3101 7.23232 12.6899 7.27542 13.0661L7.37355 13.9263L5.98665 15.1529L6.87591 16.6472L8.6632 16.0947ZM12.4971 15.9C10.5616 15.9 8.99262 14.3778 8.99262 12.5C8.99262 10.6222 10.5616 9.1 12.4971 9.1C14.4326 9.1 16.0016 10.6222 16.0016 12.5C15.9992 14.3768 14.4316 15.8977 12.4971 15.9ZM12.4971 10.8C11.5398 10.8009 10.7605 11.547 10.7468 12.4756C10.7331 13.4043 11.4901 14.1717 12.4469 14.1993C13.4037 14.2268 14.2063 13.5043 14.2493 12.5765V12.9165V12.5C14.2493 11.5611 13.4648 10.8 12.4971 10.8Z" fill="#242424"/>
</svg>
