<svg width="12" height="12" viewBox="0 0 12 12" fill="none" xmlns="http://www.w3.org/2000/svg">
<path d="M11 1C11.3452 1.34518 11.3452 1.90482 11 2.25L7.25 6L11 9.75C11.3452 10.0952 11.3452 10.6548 11 11C10.6548 11.3452 10.0952 11.3452 9.75 11L6 7.25L2.25 11C1.90482 11.3452 1.34518 11.3452 1 11C0.654822 10.6548 0.654822 10.0952 1 9.75L4.75 6L0.999998 2.25C0.65482 1.90483 0.65482 1.34518 0.999998 1C1.34518 0.654825 1.90482 0.654825 2.25 1L6 4.75L9.75 1C10.0952 0.654823 10.6548 0.654823 11 1Z" fill="white"/>
</svg>
